<svg width="268px" height="54px" viewBox="0 0 268 54" version="1.1" xmlns="http://www.w3.org/2000/svg" xmlns:xlink="http://www.w3.org/1999/xlink">
    <g id="Page-1" stroke="none" stroke-width="1" fill="none" fill-rule="evenodd">
        <g id="Main/home" transform="translate(-61.000000, -3582.000000)">
            <g id="Footer" transform="translate(-3.000000, 3523.000000)">
                <g id="logo" transform="translate(64.000000, 59.000000)">
                    <g id="Group" fill-rule="nonzero">
                        <path d="M17.1145205,27.9874286 C17.1145205,27.9874286 17.0071233,27.4397143 17.0071233,27.1851429 C17.0071233,26.4445714 16.930411,25.704 17.1528767,24.9788571 C17.229589,24.7397143 17.1682192,24.57 16.9227397,24.4234286 C16.2860274,24.0454286 15.6493151,23.706 14.9128767,23.5748571 C14.6367123,23.5208571 14.4832877,23.5902857 14.3835616,23.8834286 C14.2224658,24.3617143 13.9923288,24.8245714 13.8158904,25.3028571 C13.6854795,25.6422857 13.5857534,25.9971429 13.4936986,26.352 C13.3786301,26.7685714 13.2865753,27.2005714 13.1715068,27.6711429 C13.1254795,27.594 12.8339726,26.9074286 12.5194521,26.784 C12.419726,26.7454286 12.220274,26.8148571 12.1358904,26.8997143 C12.0438356,27 12.0054795,27.1774286 11.9747945,27.324 C11.859726,27.9334286 11.7139726,28.5505714 11.6526027,29.1677143 C11.5682192,29.9391429 11.5221918,30.7182857 11.529863,31.4974286 C11.5375342,31.9448571 11.3610959,32.2071429 10.969863,32.4154286 C9.94958904,25.1331429 13.5627397,14.0785714 16.5468493,9.47314286 C34.5972603,9.47314286 49.149589,23.5671429 52.7167123,32.616 C43.8027397,25.2951429 27.7468493,21.0445714 17.1145205,27.9874286 Z" id="Shape" fill="#888888"></path>
                        <path d="M32.3726027,48.5845714 C32.1347945,48.762 32.1041096,49.0088571 32.2805479,49.3791429 C32.4109589,49.6568571 32.8175342,49.7725714 33.0016438,49.6954286 C34.0219178,49.2634286 34.9271233,48.6848571 35.939726,48.2374286 C36.2158904,48.114 36.5841096,47.9288571 36.8526027,47.7745714 C36.9830137,47.6974286 37.4663014,47.9057143 37.4663014,47.9057143 C30.7693151,51.9634286 24.8547945,54 15.4345205,54 C12.5041096,49.14 10.4712329,42.4671429 10.1106849,35.9408571 C12.88,32.7394286 16.140274,30.7337143 20.1293151,29.3451429 C21.0191781,35.0305714 25.0005479,40.824 30.5468493,44.6811429 C30.5468493,44.6811429 29.2120548,45.6377143 28.3758904,45.9617143 C28.2608219,46.0234286 28.1917808,46.1314286 28.1687671,46.2625714 C28.1534247,46.6714286 28.1610959,47.0802857 28.2071233,47.4891429 C28.2454795,47.8362857 28.3375342,48.1757143 28.4142466,48.5151429 C28.4909589,48.8545714 28.6060274,48.9085714 28.9512329,48.9008571 C30.2860274,48.87 32.8789041,48.0291429 32.9249315,48.0291429 C32.6871233,48.2991429 32.5030137,48.4842857 32.3726027,48.5845714 Z" id="Shape_1_" fill="#4A4A4A"></path>
                        <path d="M30.0328767,40.2685714 C35.3260274,36.0797143 36.4383562,29.376 36.5841096,26.8611429 C41.9156164,27.4937143 46.8558904,30.0317143 52.1106849,33.9968571 C49.410411,38.8568571 45.4673973,42.8682857 40.0361644,46.6097143 C36.0624658,45.5374286 33.1473973,43.1845714 30.0328767,40.2685714 Z" id="Shape_2_" fill="#4A4A4A"></path>
                        <path d="M55.2865753,48.2837143 C53.0158904,52.0714286 48.6509589,50.706 47.2317808,48.654 C45.8126027,46.602 46.0427397,44.2028571 46.0427397,44.2028571 C46.0580822,43.7785714 49.3567123,40.5231429 49.4794521,40.4922857 C51.1364384,39.7362857 58.0865753,43.6088571 55.2865753,48.2837143 Z" id="Shape_3_" fill="#4A4A4A"></path>
                        <path d="M9.09041096,42.3437143 L10.5172603,47.2577143 C9.71945205,51.7242857 -0.0920547945,52.2257143 0.061369863,46.4014286 C0.230136986,39.4817143 8.52273973,41.148 9.09041096,42.3437143 Z" id="Shape_4_" fill="#4A4A4A"></path>
                        <path d="M29.7873973,9.98228571 L24.3024658,8.44714286 C22.0778082,5.562 24.0569863,-1.09542857 29.1353425,0.254571429 C35.7249315,1.998 31.9506849,9.47314286 29.7873973,9.98228571 Z" id="Shape_5_" fill="#888888"></path>
                    </g>
                    <g id="Group" transform="translate(67.000000, 16.000000)" fill="#888888" fill-rule="nonzero">
                        <path d="M37.5006652,30.0090293 L37.5006652,26.1715576 L23.7658537,26.1715576 C16.6283814,26.1715576 12.3613304,26.0027088 10.3782705,25.6650113 C9.68381375,25.5498871 8.76558758,24.6058691 8.6421286,23.938149 C8.10199557,21.1751693 8.04026608,14.9431151 8.44150776,11.3205418 C8.59583149,9.94672686 10.1776497,8.2275395 11.682306,8.08171558 C13.9971619,7.85914221 17.9169845,7.74401806 23.7658537,7.74401806 L37.5006652,7.74401806 L37.5006652,3.90654628 L37.5006652,0.0690744921 L23.0713969,0.0690744921 C7.09889135,0.0690744921 4.89206208,-0.767494357 1.72842572,3.53047404 C0.262350333,5.44920993 0.0771618625,8.15079007 0.0771618625,16.8772009 C0.0771618625,27.6988713 -0.06172949,30.3006772 4.56798226,33.0636569 C6.80567627,34.4451467 9.2594235,33.8388262 22.6855876,33.8388262 L37.5006652,33.8388262 L37.5006652,30.0090293 Z" id="C"></path>
                        <path d="M95.0634146,23.8690745 C95.0634146,19.5020316 95.1637251,15.227088 95.2254545,14.0221219 C95.2331707,13.868623 96.321153,15.1426637 97.8258093,17.0920993 C99.2687361,18.9647856 101.112905,21.4668172 102.856763,23.9458239 C106.406208,29.0112867 109.492683,33.1557562 109.724169,33.1557562 C109.955654,33.1557562 113.11929,28.7810384 116.900222,23.4085779 L123.613304,13.738149 L123.613304,23.7923251 L123.613304,33.9232506 L127.857206,33.9232506 L132.101109,33.9232506 L132.101109,17.0383747 L132.101109,0.0767494357 L123.474412,0.0767494357 L116.668736,9.74717833 C113.042129,14.96614 109.878492,19.1873589 109.569845,19.1106095 C109.261197,19.03386 106.174723,14.8126411 102.625277,9.74717833 L95.6807095,0.0767494357 L87.3472284,0.0767494357 L87.3472284,17.0383747 L87.3472284,33.9232506 L91.2053215,33.9232506 L95.0634146,33.9232506 L95.0634146,23.8690745 Z" id="M"></path>
                        <path d="M82.7946785,19.1873589 C81.9150333,17.8902935 80.2406208,16.5241535 80.2406208,16.5241535 C80.2406208,16.5241535 81.7066962,15.3959368 82.4088692,14.275395 C84.7237251,10.4609481 84.3456319,4.44379233 79.6850554,1.30474041 C78.4041685,0.445146727 76.891796,0 75.3485588,0 L41.3587583,0 L41.3587583,16.9616253 L41.3587583,33.8465011 L75.6340576,33.9693002 C77.1309978,33.9769752 78.6047894,33.5702032 79.8856763,32.7873589 C85.6188027,29.2875847 85.6110865,23.2781038 82.7946785,19.1873589 Z M62.886918,26.1715576 L49.8465632,26.1715576 L49.8465632,20.7990971 L62.886918,20.7990971 C75.0013304,20.7990971 76.6294457,20.2311512 76.6294457,23.4853273 C76.6294457,26.7395034 74.2297118,26.1715576 62.886918,26.1715576 Z M62.886918,13.1241535 L49.8465632,13.1241535 L49.8465632,10.4379233 L49.8465632,7.751693 L62.886918,7.751693 C75.0013304,7.751693 76.6294457,7.83611738 76.6294457,10.4379233 C76.6294457,13.0397291 74.2297118,13.1241535 62.886918,13.1241535 Z" id="Shape"></path>
                        <path d="M174,30.0704289 L174,26.2329571 L160.265188,26.2329571 C153.127716,26.2329571 148.860665,26.0641084 146.877605,25.7264108 C146.183149,25.6112867 145.264922,24.6672686 145.141463,23.9995485 C144.60133,21.2365688 144.539601,15.0045147 144.940843,11.3819413 C145.095166,10.0081264 146.676984,8.28893905 148.181641,8.14311512 C150.496497,7.92054176 154.416319,7.80541761 160.265188,7.80541761 L174,7.80541761 L174,3.96794582 L174,0.130474041 L159.570732,0.130474041 C143.598226,0.130474041 141.391397,-0.706094808 138.227761,3.59187359 C136.761685,5.51060948 136.576497,8.26591422 136.576497,16.9386005 C136.576497,27.7602709 136.437605,30.3620767 141.067317,33.1250564 C142.795743,34.2225734 145.758758,33.9002257 159.184922,33.9002257 L174,33.9002257 L174,30.0704289 Z" id="C_1_"></path>
                    </g>
                    <path d="M216.212595,29 L216.212595,34.4190981 C216.212595,35.0557061 216.332653,35.5848785 216.572772,36.0066313 C216.928948,36.6432393 217.529237,36.9615385 218.373655,36.9615385 C219.386157,36.9615385 220.074488,36.6173774 220.438668,35.9290451 C220.634765,35.5550379 220.732812,35.0517273 220.732812,34.4190981 L220.732812,29 L221.945407,29 L221.945407,33.9237401 C221.945407,35.0019948 221.799337,35.8315621 221.507192,36.4124668 C220.970926,37.4708276 219.95844,38 218.469702,38 C216.980964,38 215.970479,37.4708276 215.438215,36.4124668 C215.14607,35.8315621 215,35.0019948 215,33.9237401 L215,29 L216.212595,29 Z M223.794314,29 L224.958885,29 L224.958885,33.2732095 L229.256994,29 L230.907804,29 L227.240005,32.5331565 L231.009854,37.7672414 L229.455091,37.7672414 L226.369578,33.3687003 L224.958885,34.7115385 L224.958885,37.7672414 L223.794314,37.7672414 L223.794314,29 Z M236.094348,33.0165782 C236.654626,33.0165782 237.097839,32.9051735 237.424,32.6823607 C237.750162,32.459548 237.91324,32.0576952 237.91324,31.4767905 C237.91324,30.8521189 237.685131,30.4263937 237.228905,30.1996021 C236.984784,30.0802381 236.658627,30.020557 236.250425,30.020557 L233.332994,30.020557 L233.332994,33.0165782 L236.094348,33.0165782 Z M232.138408,29 L236.22041,29 C236.892743,29 237.44701,29.0974791 237.883226,29.2924403 C238.711636,29.6664475 239.125835,30.3567589 239.125835,31.3633952 C239.125835,31.8885968 239.016783,32.3183007 238.798675,32.6525199 C238.580567,32.9867391 238.27542,33.255304 237.883226,33.4582228 C238.227396,33.5974808 238.486521,33.7805028 238.660607,34.0072944 C238.834693,34.234086 238.93174,34.6021195 238.95175,35.1114058 L238.993771,36.2871353 C239.005776,36.6213545 239.03379,36.8700257 239.077812,37.0331565 C239.149847,37.3116725 239.277909,37.4907158 239.462,37.5702918 L239.462,37.7672414 L237.997282,37.7672414 C237.957262,37.6916442 237.925246,37.5941651 237.901235,37.4748011 C237.877223,37.3554371 237.857213,37.1246701 237.841205,36.7824934 L237.76917,35.3202918 C237.741156,34.7473446 237.527053,34.3633962 237.126855,34.168435 C236.898742,34.0610074 236.54057,34.0072944 236.052328,34.0072944 L233.332994,34.0072944 L233.332994,37.7672414 L232.138408,37.7672414 L232.138408,29 Z M245.398913,34.1744032 L244.060256,30.301061 L242.637558,34.1744032 L245.398913,34.1744032 Z M243.43595,29 L244.786612,29 L247.986182,37.7672414 L246.67754,37.7672414 L245.783101,35.1412467 L242.29539,35.1412467 L241.340922,37.7672414 L240.116321,37.7672414 L243.43595,29 Z M249.342847,29 L250.549439,29 L250.549439,37.7672414 L249.342847,37.7672414 L249.342847,29 Z M252.488391,29 L253.899083,29 L258.353268,36.102122 L258.353268,29 L259.487824,29 L259.487824,37.7672414 L258.149168,37.7672414 L253.62895,30.6710875 L253.62895,37.7672414 L252.488391,37.7672414 L252.488391,29 Z M261.480802,29 L267.909956,29 L267.909956,30.0742706 L262.645373,30.0742706 L262.645373,32.7360743 L267.513761,32.7360743 L267.513761,33.7506631 L262.645373,33.7506631 L262.645373,36.7228117 L268,36.7228117 L268,37.7672414 L261.480802,37.7672414 L261.480802,29 Z" id="UKRAINE" fill="#4A4A4A"></path>
                </g>
            </g>
        </g>
    </g>
</svg>