<svg width="211px" height="778px" viewBox="0 0 211 778" version="1.1" xmlns="http://www.w3.org/2000/svg" xmlns:xlink="http://www.w3.org/1999/xlink">
    <g id="Page-1" stroke="none" stroke-width="1" fill="none" fill-rule="evenodd">
        <g id="Main/home">
            <g id="slide-1" transform="translate(-2.000000, -503.000000)" fill="#005899">
                <path d="M-119.082812,927.692187 C-121.145323,949.536047 -129.207742,966.574939 -143.270312,978.809375 C-157.332883,991.043811 -176.035821,997.160937 -199.379687,997.160937 C-215.692269,997.160937 -230.059313,993.293789 -242.48125,985.559375 C-254.903187,977.824961 -264.489029,966.832884 -271.239062,952.582812 C-277.989096,938.332741 -281.504686,921.786032 -281.785937,902.942187 L-281.785937,883.817187 C-281.785937,864.504591 -278.364097,847.489136 -271.520312,832.770312 C-264.676528,818.051489 -254.856314,806.707852 -242.059375,798.739062 C-229.262436,790.770273 -214.473521,786.785937 -197.692187,786.785937 C-175.098324,786.785937 -156.911006,792.926501 -143.129687,805.207812 C-129.348369,817.489124 -121.332824,834.8327 -119.082812,857.239062 L-154.520312,857.239062 C-156.207821,842.520239 -160.49684,831.903158 -167.3875,825.3875 C-174.278159,818.871842 -184.379621,815.614062 -197.692187,815.614062 C-213.161015,815.614062 -225.043708,821.262443 -233.340625,832.559375 C-241.637541,843.856306 -245.879686,860.426453 -246.067187,882.270312 L-246.067187,900.410937 C-246.067187,922.536048 -242.10629,939.410879 -234.184375,951.035937 C-226.26246,962.660996 -214.661014,968.473437 -199.379687,968.473437 C-185.410868,968.473437 -174.910973,965.332844 -167.879687,959.051562 C-160.848402,952.770281 -156.395322,942.317261 -154.520312,927.692187 L-119.082812,927.692187 Z M-89.5015625,994.348437 L-89.5015625,789.598437 L-19.3296875,789.598437 C3.82667831,789.598437 21.4515021,794.239016 33.5453125,803.520312 C45.639123,812.801609 51.6859375,826.629596 51.6859375,845.004687 C51.6859375,854.379734 49.1547128,862.81715 44.0921875,870.317187 C39.0296622,877.817225 31.6234863,883.629667 21.8734375,887.754687 C32.9359928,890.754702 41.4905948,896.403083 47.5375,904.7 C53.5844053,912.996916 56.6078125,922.957754 56.6078125,934.582812 C56.6078125,953.801659 50.4438117,968.567136 38.115625,978.879687 C25.7874384,989.192239 8.13917737,994.348437 -14.8296875,994.348437 L-89.5015625,994.348437 Z M-53.9234375,901.957812 L-53.9234375,965.942187 L-14.4078125,965.942187 C-3.25150669,965.942187 5.46715612,963.17659 11.7484375,957.645312 C18.0297189,952.114035 21.1703125,944.426612 21.1703125,934.582812 C21.1703125,913.301456 10.2954213,902.426565 -11.4546875,901.957812 L-53.9234375,901.957812 Z M-53.9234375,875.801562 L-19.0484375,875.801562 C-7.98588216,875.801562 0.662468852,873.293775 6.89687502,868.278125 C13.1312812,863.262475 16.2484375,856.160983 16.2484375,846.973437 C16.2484375,836.848387 13.3656539,829.53596 7.60000002,825.035937 C1.8343462,820.535915 -7.14212654,818.285937 -19.3296875,818.285937 L-53.9234375,818.285937 L-53.9234375,875.801562 Z M136.110937,789.598437 L195.173437,946.535937 L254.095312,789.598437 L300.079687,789.598437 L300.079687,994.348437 L264.642187,994.348437 L264.642187,926.848437 L268.157812,836.567187 L207.689062,994.348437 L182.235937,994.348437 L121.907812,836.707812 L125.423437,926.848437 L125.423437,994.348437 L89.9859375,994.348437 L89.9859375,789.598437 L136.110937,789.598437 Z M496.160937,927.692187 C494.098427,949.536047 486.036008,966.574939 471.973437,978.809375 C457.910867,991.043811 439.207929,997.160937 415.864062,997.160937 C399.551481,997.160937 385.184437,993.293789 372.7625,985.559375 C360.340563,977.824961 350.754721,966.832884 344.004687,952.582812 C337.254654,938.332741 333.739064,921.786032 333.457812,902.942187 L333.457812,883.817187 C333.457812,864.504591 336.879653,847.489136 343.723437,832.770312 C350.567222,818.051489 360.387436,806.707852 373.184375,798.739062 C385.981314,790.770273 400.770229,786.785937 417.551562,786.785937 C440.145425,786.785937 458.332744,792.926501 472.114062,805.207812 C485.895381,817.489124 493.910926,834.8327 496.160937,857.239062 L460.723437,857.239062 C459.035929,842.520239 454.746909,831.903158 447.85625,825.3875 C440.96559,818.871842 430.864129,815.614062 417.551562,815.614062 C402.082735,815.614062 390.200041,821.262443 381.903125,832.559375 C373.606208,843.856306 369.364063,860.426453 369.176562,882.270312 L369.176562,900.410937 C369.176562,922.536048 373.13746,939.410879 381.059375,951.035937 C388.98129,962.660996 400.582736,968.473437 415.864062,968.473437 C429.832882,968.473437 440.332777,965.332844 447.364062,959.051562 C454.395348,952.770281 458.848428,942.317261 460.723437,927.692187 L496.160937,927.692187 Z" id="CBMC" style="mix-blend-mode: overlay;" transform="translate(107.187500, 891.973437) rotate(-90.000000) translate(-107.187500, -891.973437) "></path>
            </g>
        </g>
    </g>
</svg>